<?xml version="1.0" encoding="UTF-8"?>
<svg id="Layer_1" data-name="Layer 1" xmlns="http://www.w3.org/2000/svg" version="1.1" viewBox="0 0 382.87 133.27">
  <defs>
    <style>
      .cls-1 {
        fill-rule: evenodd;
      }

      .cls-1, .cls-2 {
        fill: #fff;
        stroke-width: 0px;
      }
    </style>
  </defs>
  <path class="cls-1" d="M83.67,11.18c22.13,0,40.06,17.94,40.06,40.06,0,10.12-3.75,19.36-9.94,26.41l10.44,13.65h-15.83l-4.29-5.61h0s-9.68-12.66-9.68-12.66h0s-10.42-13.64-10.42-13.64h15.83l4.06,5.31c2.57-3.85,4.07-8.49,4.07-13.47,0-13.42-10.88-24.3-24.3-24.3s-24.3,10.88-24.3,24.3c0,12.29,9.12,22.45,20.97,24.07l11.58,15.14c-2.66.56-5.42.85-8.24.85-19.33,0-35.46-13.69-39.23-31.9h-17.46v31.9h-15.83V11.18h15.83v32.39h17.37c3.58-18.46,19.82-32.39,39.33-32.39h0Z"/>
  <path class="cls-2" d="M165.55,91.29h-10.91l.11-71.72h10.8v71.72h0ZM192.03,20.71h-63.87v-9.55h63.99l-.11,9.55h0ZM238.28,74.7l6.59,6.82c-2.95,3.64-6.57,6.48-10.85,8.52-4.28,2.05-9.11,3.07-14.49,3.07-6.14,0-11.59-1.29-16.37-3.86-4.77-2.58-8.51-6.12-11.19-10.63-2.69-4.51-4.03-9.68-4.03-15.51s1.29-11.01,3.86-15.51c2.58-4.51,6.14-8.05,10.68-10.63,4.55-2.58,9.66-3.86,15.34-3.86s10.44,1.27,14.72,3.81c4.28,2.54,7.65,6.02,10.12,10.46,2.46,4.43,3.69,9.57,3.69,15.4v.68h-10.68v-1.02c0-4.09-.76-7.67-2.27-10.74-1.52-3.07-3.62-5.46-6.31-7.16-2.69-1.7-5.78-2.56-9.26-2.56-3.71,0-7.01.87-9.89,2.61-2.88,1.74-5.11,4.19-6.71,7.33-1.59,3.14-2.39,6.84-2.39,11.08s.89,7.97,2.67,11.19c1.78,3.22,4.26,5.7,7.44,7.44,3.18,1.74,6.82,2.61,10.91,2.61,7.5,0,13.64-3.18,18.41-9.55h0ZM246.35,66.63h-50.57v-7.84h48.76l1.82,3.98v3.86h0ZM303.06,75.27l7.16,6.82c-2.73,3.41-6.1,6.1-10.11,8.07-4.02,1.97-8.56,2.96-13.64,2.96-5.76,0-10.89-1.29-15.4-3.86-4.51-2.58-8.05-6.12-10.63-10.63-2.58-4.51-3.86-9.68-3.86-15.51s1.29-10.89,3.86-15.4c2.58-4.51,6.16-8.07,10.74-10.68,4.58-2.61,9.76-3.92,15.51-3.92,5,0,9.49.98,13.47,2.95,3.98,1.97,7.33,4.66,10.06,8.07l-7.16,6.82c-1.74-2.65-3.94-4.77-6.59-6.36-2.65-1.59-5.83-2.39-9.55-2.39s-7.14.89-10.06,2.67c-2.92,1.78-5.19,4.24-6.82,7.39-1.63,3.14-2.44,6.76-2.44,10.85s.81,7.71,2.44,10.85c1.63,3.14,3.9,5.61,6.82,7.39,2.92,1.78,6.27,2.67,10.06,2.67s6.99-.8,9.6-2.39c2.61-1.59,4.79-3.71,6.54-6.36h0ZM374.44,91.29h-10.57v-32.5c0-5.53-1.25-9.68-3.75-12.44-2.5-2.77-5.87-4.15-10.11-4.15-3.03,0-5.91.8-8.64,2.39-2.73,1.59-4.92,4.09-6.59,7.5-1.67,3.41-2.5,7.8-2.5,13.18v26.03h-10.57V11.16h10.57v41.04h-1.59c.83-4.77,2.33-8.54,4.49-11.31,2.16-2.77,4.75-4.75,7.78-5.97,3.03-1.21,6.18-1.82,9.43-1.82,6.82,0,12.2,2.1,16.14,6.31,3.94,4.2,5.91,10.29,5.91,18.24v33.64h0Z"/>
  <path class="cls-2" d="M44.45,122.2l-.02-10.45h1.22v4.63s6.32.02,6.32.02v-4.64h1.22v10.45h-1.22v-4.77l-6.32-.02v4.79s-1.2,0-1.2,0h0ZM59.36,122.2v-7.44h1.19v7.44s-1.19,0-1.19,0h0ZM59.23,113.05v-1.33s1.45,0,1.45,0v1.35s-1.45-.01-1.45-.01h0ZM69.87,125.5c-.64,0-1.24-.08-1.78-.24-.54-.16-1.03-.4-1.47-.73l.36-.9c.31.22.61.39.9.52.3.13.6.23.92.29.32.06.65.1,1.01.1.73,0,1.28-.19,1.66-.58.38-.39.56-.93.56-1.65v-2.18h.15c-.16.58-.48,1.05-.98,1.39-.49.34-1.07.51-1.73.51s-1.27-.15-1.77-.45c-.5-.3-.88-.73-1.16-1.29-.27-.56-.41-1.22-.41-1.98s.14-1.4.41-1.96c.27-.55.66-.98,1.16-1.28.5-.3,1.09-.45,1.77-.45s1.25.17,1.74.5c.49.34.81.8.97,1.39l-.15-.15.13-1.62h1.17c-.04.29-.07.58-.09.87-.02.29-.03.58-.03.85v5.68c0,1.11-.28,1.94-.85,2.51-.57.56-1.4.85-2.5.85h0ZM69.69,121.06c.72,0,1.29-.24,1.7-.72.42-.48.62-1.15.62-2.02s-.21-1.54-.62-2.02c-.41-.47-.98-.71-1.7-.71s-1.28.24-1.7.71c-.43.47-.64,1.15-.64,2.02s.21,1.54.64,2.02c.42.48.99.72,1.7.72h0ZM79.23,122.2v-10.91h1.2v5.11h-.19c.21-.58.56-1.03,1.05-1.33.49-.3,1.06-.45,1.7-.45.89,0,1.55.24,1.99.72s.65,1.2.65,2.17v4.68h-1.2v-4.61c0-.69-.14-1.2-.41-1.51-.27-.32-.71-.47-1.31-.47-.69,0-1.24.21-1.65.64-.41.42-.62.98-.62,1.68v4.28h-1.2ZM106.72,125.03c-.29-.19-.58-.43-.89-.73-.31-.3-.6-.63-.87-.99s-.51-.73-.7-1.1l1.08-.4c.26.51.59.98.99,1.4.41.42.82.78,1.23,1.09l-.84.73h0ZM99.1,116.97c0-1.11.19-2.06.57-2.85.38-.8.93-1.41,1.65-1.85.72-.43,1.58-.65,2.59-.65s1.83.22,2.55.65c.72.43,1.28,1.05,1.67,1.85.39.8.59,1.74.59,2.84s-.2,2.06-.59,2.86c-.4.8-.95,1.42-1.67,1.86-.72.44-1.56.66-2.54.66s-1.87-.22-2.58-.66c-.71-.44-1.26-1.06-1.65-1.86-.39-.8-.58-1.75-.58-2.85h0ZM100.39,116.97c0,1.34.3,2.39.89,3.15.59.76,1.47,1.13,2.62,1.13s1.97-.38,2.59-1.13c.62-.76.93-1.81.93-3.15s-.31-2.4-.92-3.15c-.61-.75-1.48-1.12-2.59-1.12s-2.03.37-2.62,1.12c-.59.75-.89,1.8-.89,3.15h0ZM117.12,122.33c-.88,0-1.54-.24-1.99-.72-.45-.48-.67-1.22-.67-2.23v-4.63h1.2v4.6c0,.68.14,1.18.41,1.5.28.32.7.48,1.27.48.66,0,1.19-.21,1.59-.64.4-.42.59-.99.59-1.71v-4.24h1.2v7.44h-1.17v-1.69h.19c-.21.59-.54,1.03-1,1.34-.46.31-1,.47-1.62.48h0ZM129.59,122.33c-.66,0-1.24-.16-1.73-.47-.49-.31-.88-.75-1.15-1.33-.27-.57-.41-1.26-.41-2.06s.14-1.5.41-2.08c.27-.57.65-1.01,1.15-1.32.49-.31,1.07-.46,1.73-.46s1.25.17,1.74.51c.49.34.81.8.97,1.39h-.18l.16-1.76h1.16c-.03.29-.06.58-.08.87-.02.29-.04.58-.04.85v5.72h-1.2v-1.75h.16c-.16.58-.48,1.04-.98,1.38-.49.34-1.07.5-1.72.5h0ZM129.82,121.35c.71,0,1.27-.24,1.69-.73.42-.49.62-1.2.62-2.14s-.21-1.67-.62-2.16c-.42-.49-.98-.73-1.69-.73s-1.26.24-1.68.73c-.42.49-.63,1.21-.63,2.16s.21,1.65.63,2.14c.42.49.98.73,1.68.73h0ZM139.35,122.2v-10.91h1.2v10.91h-1.2ZM146.58,122.2v-7.44h1.19v7.44s-1.19,0-1.19,0h0ZM146.44,113.05v-1.33s1.45,0,1.45,0l.02,1.35h-1.47ZM156.44,122.33c-.73,0-1.29-.21-1.68-.63-.39-.42-.58-1.06-.58-1.9v-4.11h-1.45v-.93h1.45v-2.03l1.2-.34v2.37h2.13v.93h-2.13v3.97c0,.59.1,1.02.3,1.27.2.25.51.38.91.38.19,0,.36-.02.5-.05.15-.03.28-.08.4-.13v1.01c-.14.06-.3.11-.5.14-.19.03-.38.05-.57.05h0ZM162.49,125.56l-.28-.99c.46-.11.85-.23,1.16-.38.31-.14.57-.33.78-.57.21-.24.39-.53.53-.89l.39-.87-.03.5-3.25-7.61h1.3l2.68,6.54h-.39l2.65-6.54h1.26l-3.44,8.06c-.2.47-.42.87-.65,1.19-.24.32-.49.58-.76.79-.27.2-.57.36-.9.48-.33.12-.68.21-1.07.28h0ZM181.99,118.63v-.99h4.21s.01.99.01.99h-4.23ZM198.68,122.2v-9.41h-3.69v-1.04h8.6v1.04h-3.69v9.41s-1.22,0-1.22,0h0ZM210.84,122.33c-1.17,0-2.09-.34-2.76-1.02-.67-.68-1.01-1.62-1.01-2.82,0-.78.15-1.46.44-2.04.3-.58.71-1.03,1.25-1.35.53-.32,1.15-.48,1.84-.48s1.25.14,1.72.43c.46.29.82.69,1.07,1.22.25.53.37,1.15.37,1.88v.44h-5.77v-.76h4.98l-.25.19c0-.79-.18-1.41-.53-1.85-.36-.44-.88-.67-1.59-.67-.74,0-1.32.26-1.73.78-.42.52-.62,1.22-.62,2.1v.13c0,.93.23,1.63.69,2.11.46.48,1.1.72,1.93.72.44,0,.86-.07,1.25-.2.39-.13.76-.35,1.12-.66l.42.85c-.33.32-.74.56-1.24.73-.5.17-1.03.26-1.58.26h0ZM222.43,122.33c-.73,0-1.37-.16-1.91-.47-.54-.32-.95-.77-1.25-1.35-.29-.58-.44-1.27-.44-2.08s.15-1.5.44-2.07c.3-.57.71-1,1.25-1.3.54-.3,1.17-.44,1.89-.44.47,0,.94.08,1.39.25.45.17.82.41,1.12.71l-.43.86c-.3-.29-.62-.5-.97-.64-.35-.14-.69-.21-1.03-.21-.77,0-1.37.24-1.79.73-.42.48-.64,1.19-.64,2.12s.21,1.63.64,2.13c.42.5,1.02.76,1.79.76.33,0,.66-.06,1.02-.19.35-.13.68-.34.99-.64l.43.85c-.31.32-.69.56-1.14.73-.45.17-.91.25-1.36.25h0ZM230.34,122.2v-10.91h1.2v5.11h-.19c.21-.58.56-1.03,1.05-1.33.49-.3,1.06-.45,1.7-.45.89,0,1.55.24,1.99.72.43.48.65,1.2.65,2.17v4.68h-1.2v-4.61c0-.69-.14-1.2-.41-1.51-.27-.32-.71-.47-1.31-.47-.69,0-1.24.21-1.65.64-.41.42-.62.98-.62,1.68v4.28h-1.2ZM254.01,122.33c-.84,0-1.59-.11-2.25-.33-.66-.22-1.24-.53-1.73-.93l.44-.98c.35.26.69.47,1.05.64.35.17.73.3,1.13.39.41.08.86.13,1.36.13.88,0,1.53-.16,1.96-.49.42-.33.64-.76.64-1.3,0-.46-.15-.82-.44-1.07-.3-.25-.82-.44-1.56-.59l-1.56-.31c-.96-.2-1.67-.52-2.14-.96-.47-.44-.7-1.05-.7-1.81,0-.62.16-1.17.48-1.63.32-.46.77-.83,1.36-1.08.58-.26,1.26-.39,2.03-.39s1.42.11,2.03.33c.61.22,1.14.55,1.57.97l-.43.95c-.46-.42-.95-.71-1.46-.9-.51-.18-1.08-.27-1.73-.27-.81,0-1.45.18-1.92.53-.47.35-.7.83-.7,1.43,0,.48.15.86.44,1.13.3.27.79.48,1.47.62l1.57.31c1.01.21,1.75.52,2.22.93.47.42.71,1,.71,1.75,0,.57-.16,1.08-.47,1.53-.31.44-.75.79-1.33,1.04-.57.25-1.26.37-2.05.37h0ZM266.45,122.32c-.71,0-1.33-.14-1.86-.45-.53-.31-.94-.75-1.22-1.33-.29-.57-.43-1.26-.43-2.06s.14-1.49.43-2.06c.29-.57.69-1.02,1.22-1.33.52-.31,1.15-.47,1.87-.47s1.35.16,1.88.47c.53.31.94.76,1.22,1.33.29.58.43,1.26.43,2.05,0,.79-.13,1.48-.42,2.05-.29.58-.7,1.02-1.23,1.33-.53.31-1.15.46-1.88.46h0ZM266.45,121.37c.71,0,1.28-.26,1.69-.75.42-.49.63-1.2.64-2.14,0-.95-.22-1.67-.64-2.16-.41-.49-.98-.73-1.69-.73s-1.26.24-1.68.73c-.42.49-.63,1.21-.64,2.16,0,.94.22,1.66.64,2.15.42.49.97.74,1.68.74h0ZM275.57,122.2v-10.91h1.2v10.91h-1.2ZM285.42,122.33c-.88,0-1.54-.24-1.99-.72-.45-.48-.67-1.22-.67-2.23v-4.63h1.2v4.6c0,.68.14,1.18.41,1.5.28.32.7.48,1.28.48.66,0,1.19-.21,1.59-.64s.59-.99.59-1.71v-4.24h1.2v7.44h-1.17v-1.69h.19c-.21.59-.54,1.03-1,1.34-.46.31-1,.47-1.62.48h0ZM297.69,122.33c-.73,0-1.29-.21-1.68-.63-.39-.42-.58-1.06-.58-1.9v-4.11h-1.45v-.93h1.45v-2.03l1.2-.34v2.37h2.13v.93h-2.13v3.97c0,.59.1,1.02.3,1.27.2.25.51.38.91.38.19,0,.36-.02.5-.05.15-.03.28-.08.4-.13v1.01c-.14.06-.3.11-.5.14-.19.03-.38.05-.57.05h0ZM303.94,122.2v-7.44h1.19v7.44s-1.19,0-1.19,0h0ZM303.8,113.05v-1.33s1.45,0,1.45,0v1.35s-1.45-.01-1.45-.01h0ZM314.22,122.32c-.71,0-1.33-.14-1.86-.45-.53-.31-.94-.75-1.22-1.33-.29-.57-.43-1.26-.43-2.06s.14-1.49.43-2.06c.29-.57.69-1.02,1.22-1.33.52-.31,1.15-.47,1.87-.47s1.35.16,1.88.47c.53.31.94.76,1.22,1.33.29.58.43,1.26.43,2.05,0,.79-.13,1.48-.42,2.05-.29.58-.7,1.02-1.23,1.33-.53.31-1.15.46-1.88.46h0ZM314.22,121.37c.71,0,1.27-.26,1.69-.75.42-.49.63-1.2.64-2.14,0-.95-.22-1.67-.64-2.16-.42-.49-.98-.73-1.69-.73s-1.26.24-1.68.73c-.41.49-.63,1.21-.64,2.16,0,.94.22,1.66.64,2.15.42.49.97.74,1.68.74h0ZM323.33,122.2v-5.72c0-.28-.01-.56-.04-.85-.02-.29-.05-.58-.08-.87h1.16l.15,1.63h-.18c.22-.57.57-1.01,1.05-1.31.48-.3,1.04-.45,1.67-.45.88,0,1.54.23,1.99.7.45.47.67,1.21.67,2.22v4.66h-1.2v-4.58c0-.7-.14-1.21-.42-1.53-.28-.32-.72-.48-1.31-.48-.69,0-1.24.21-1.65.64-.41.42-.61.99-.61,1.7v4.25h-1.2ZM338.19,122.33c-.59,0-1.15-.08-1.66-.24-.51-.16-.94-.39-1.28-.69l.42-.85c.37.29.76.5,1.19.64.43.14.88.21,1.34.21.59,0,1.04-.11,1.34-.32.3-.21.45-.51.45-.88,0-.29-.1-.52-.29-.69-.19-.17-.51-.31-.94-.41l-1.38-.28c-.63-.14-1.11-.37-1.42-.7-.32-.33-.47-.75-.47-1.27,0-.43.11-.82.34-1.15.23-.33.56-.59.99-.79.43-.19.94-.29,1.53-.29.54,0,1.05.08,1.5.24.46.16.84.4,1.15.7l-.43.83c-.3-.29-.63-.5-1.02-.64-.38-.14-.77-.21-1.18-.21-.58,0-1.02.12-1.31.35-.29.23-.44.54-.44.91,0,.29.09.52.27.7.18.18.47.32.85.41l1.38.28c.67.15,1.17.38,1.5.69.33.31.5.73.5,1.25,0,.44-.12.83-.37,1.16-.25.33-.59.59-1.03.76-.44.18-.96.27-1.55.27h0Z"/>
</svg>